<svg width="308" height="277" viewBox="0 0 308 277" fill="none" xmlns="http://www.w3.org/2000/svg">
<mask id="mask0_242_6167" style="mask-type:alpha" maskUnits="userSpaceOnUse" x="0" y="0" width="308" height="277">
<rect width="308" height="277" rx="4" fill="#D9D9D9"/>
</mask>
<g mask="url(#mask0_242_6167)">
<g opacity="0.25">
<path d="M223.563 6.91061L232.887 1.50677L232.965 1.45764C237.033 -0.84145 242.624 -0.507386 248.804 3.0788C261.242 10.261 271.333 27.7301 271.333 42.0945C271.333 49.2669 268.808 54.3072 264.75 56.6653L256.251 61.5778L254.286 58.2471C252.015 57.744 249.835 56.8958 247.821 55.7319C235.382 48.5497 225.292 31.0805 225.292 16.7161C225.294 14.7754 225.532 12.8421 225.999 10.9586L223.563 6.91061Z" fill="#F28F8F"/>
<path opacity="0.15" d="M270.508 34.5395C271.058 37.0243 271.344 39.5601 271.363 42.1049C271.363 49.2773 268.838 54.3176 264.78 56.6756L256.281 61.5882L254.316 58.2575C252.045 57.7544 249.865 56.9061 247.851 55.7422C245.65 54.454 243.591 52.9357 241.71 51.2128L270.508 34.5395Z" fill="black"/>
<path d="M239.962 8.19726C252.4 15.3795 262.491 32.8486 262.491 47.213C262.491 61.5774 252.4 67.4037 239.962 60.2215C227.523 53.0393 217.432 35.5702 217.432 21.2058C217.432 6.84139 227.513 1.01506 239.962 8.19726Z" fill="#FFA8A7"/>
<path d="M231.06 28.1903V22.6686C231.06 16.3706 234.891 13.4722 239.608 16.2036C244.333 18.935 248.165 26.2449 248.165 32.5428V37.4554C248.269 40.8642 249.261 44.1868 251.044 47.0939C251.483 47.8646 251.723 48.7324 251.742 49.619C251.742 51.2008 250.759 51.9377 249.59 51.25L229.615 39.7152C228.96 39.2445 228.425 38.6271 228.051 37.9122C227.677 37.1974 227.476 36.405 227.464 35.5985C227.433 35.2905 227.474 34.9796 227.583 34.6899C227.692 34.4002 227.866 34.1396 228.092 33.9282C229.9 33.1618 231.06 31.1378 231.06 28.1903Z" fill="white"/>
<path d="M235.51 44.894C235.51 47.9202 237.348 51.4278 239.607 52.7542C241.867 54.0806 243.714 52.6756 243.714 49.6592L235.51 44.894Z" fill="white"/>
</g>
<path fill-rule="evenodd" clip-rule="evenodd" d="M108.926 246.441L112.008 252.186L124.379 246.86L121.655 239.839L108.926 246.441Z" fill="url(#paint0_linear_242_6167)"/>
<path fill-rule="evenodd" clip-rule="evenodd" d="M106.864 269.688L130.176 260.027L124.379 246.86L112.008 252.186L103.933 265.388C103.933 265.388 102.313 267.631 105.18 270C105.18 270 105.689 270.175 106.864 269.688" fill="#E2DFE2"/>
<path fill-rule="evenodd" clip-rule="evenodd" d="M109.917 255.66L125.2 248.722L128.511 256.242L112.404 263.617L106.034 261.953L109.917 255.66Z" fill="#7E5452"/>
<mask id="mask1_242_6167" style="mask-type:luminance" maskUnits="userSpaceOnUse" x="66" y="246" width="17" height="13">
<path fill-rule="evenodd" clip-rule="evenodd" d="M82.9288 251.856L79.4238 258.5L66.3879 252.708L69.2597 246.443L82.9288 251.856Z" fill="white"/>
</mask>
<g mask="url(#mask1_242_6167)">
<path fill-rule="evenodd" clip-rule="evenodd" d="M82.9288 251.856L79.4238 258.5L66.3879 252.708L69.2597 246.443L82.9288 251.856Z" fill="url(#paint1_linear_242_6167)"/>
</g>
<path fill-rule="evenodd" clip-rule="evenodd" d="M46.8633 262.388L74.2438 275.002L81.0928 259.24L66.3883 252.707L48.2609 256.331C48.2609 256.331 44.9781 256.728 45.2247 261.163C45.2247 261.163 45.4847 261.753 46.8633 262.388" fill="#E2DFE2"/>
<path fill-rule="evenodd" clip-rule="evenodd" d="M61.6443 253.689L80.1238 261.47L76.211 270.473L56.5539 263.113L52.8722 255.407L61.6443 253.689Z" fill="#7E5452"/>
<path fill-rule="evenodd" clip-rule="evenodd" d="M45.4869 258.656L74.6893 273.979L74.245 275.004L46.1746 262.272C46.1746 262.272 44.1938 261.565 45.4869 258.656" fill="#C4B8BA"/>
<mask id="mask2_242_6167" style="mask-type:luminance" maskUnits="userSpaceOnUse" x="62" y="258" width="20" height="18">
<path fill-rule="evenodd" clip-rule="evenodd" d="M79.8068 258.671L62.6426 269.892L74.2443 275.004L81.0922 259.242L79.8068 258.671Z" fill="white"/>
</mask>
<g mask="url(#mask2_242_6167)">
</g>
<path fill-rule="evenodd" clip-rule="evenodd" d="M156.217 226.34L178.635 274.762H169.61L145.753 222.913L156.217 226.34Z" fill="#E5A75B"/>
<path fill-rule="evenodd" clip-rule="evenodd" d="M150.427 224.068L173.885 274.761H178.635L155.464 224.754L150.427 224.068Z" fill="#CA722C"/>
<path fill-rule="evenodd" clip-rule="evenodd" d="M176.172 222.869C176.172 222.869 166.001 229.225 153.796 225.919L113.876 215.494L118.198 206.85H128.414L177.444 220.071L176.172 222.869Z" fill="#171B46"/>
<path fill-rule="evenodd" clip-rule="evenodd" d="M185.678 240.683L185.138 240.02L181.841 234.23C181.841 234.23 180.156 230.055 172.682 228.297L126.226 215.999H133.204L179.239 227.422L186.964 231.081L188.319 239.89L185.678 240.683Z" fill="#9F4722"/>
<path fill-rule="evenodd" clip-rule="evenodd" d="M148.856 111.918C134.674 116.807 121.191 127.273 110.571 137.031C88.4563 157.352 85.156 161.624 57.8736 178.684C41.9739 188.628 29.4378 197.037 23.2611 208.282C5.91067 239.876 26.5769 273.999 69.8819 273.999H245.921C245.921 273.999 266.629 274.433 281.742 257.547C332.958 200.314 248.012 77.7397 148.859 111.916" fill="#25CD71" fill-opacity="0.1"/>
<path fill-rule="evenodd" clip-rule="evenodd" d="M183.935 132.551L226.448 133.414L227.925 138.831C227.925 138.831 222.632 138.955 219.677 148.187L208.168 184.56C208.168 184.56 196.905 223.933 183.935 223.553C183.935 223.553 176.707 223.616 174.13 222.92L128.413 210.011C128.413 210.011 123.378 207.733 120.341 210.264L113.031 218.207C113.031 218.207 111.922 219.842 108.126 219.725H86.4037L87.4546 217.39C87.4546 217.39 88.9722 213.126 95.8056 212.134L105.79 212.952C105.79 212.952 107.744 210.305 110.24 207.658C113.296 204.416 117.571 202.603 122.025 202.534C123.574 202.512 125.119 202.703 126.613 203.105L175.005 216.117C175.005 216.117 184.91 213.037 189.863 193.494C189.863 193.494 194.682 170.873 203.918 156.283L183.935 132.551Z" fill="#4A5C86"/>
<path fill-rule="evenodd" clip-rule="evenodd" d="M121.856 170.246C121.856 170.246 100.596 164.716 90.5142 174.389C90.5142 174.389 81.511 182.451 85.1038 200.094C85.1038 200.094 90.7508 223.404 109.789 249.768L123.825 243.095L115.694 199.019L121.856 170.246Z" fill="url(#paint2_linear_242_6167)"/>
<path fill-rule="evenodd" clip-rule="evenodd" d="M226.684 133.498C226.684 133.498 216.743 136.758 213.809 150.12C213.809 150.12 202.728 187.276 199.306 195.587C199.306 195.587 192.461 220.194 180.728 217.913L143.018 207.436L155.632 181.572L167.365 139.691L190.832 127.633L226.684 133.498Z" fill="#384A72"/>
<path fill-rule="evenodd" clip-rule="evenodd" d="M116.854 216.56L84.9735 274.692H88.6607L119.49 218.66C119.49 218.66 123.35 210.408 131.981 212.239C131.981 212.239 121.175 209.441 116.854 216.56Z" fill="#E4A458"/>
<path fill-rule="evenodd" clip-rule="evenodd" d="M188.319 129.66C188.319 129.66 203.083 130.709 205.775 141.134C208.466 151.559 195.952 200.161 185.646 213.909C175.339 227.658 149.444 182.514 149.444 182.514L188.319 129.66Z" fill="url(#paint3_linear_242_6167)"/>
<path fill-rule="evenodd" clip-rule="evenodd" d="M189.086 230.628L184.999 227.359C184.999 227.359 184.017 225.452 165.814 221.087L133.124 212.358C133.124 212.358 125.137 209.85 120.586 216.536L88.6051 274.695H93.2122L124.075 219.094C124.075 219.094 126.152 214.855 132.333 216.636L178.005 228.787C178.005 228.787 183.453 229.521 186.7 235.178L189.086 230.628Z" fill="#CA722C"/>
<mask id="mask3_242_6167" style="mask-type:luminance" maskUnits="userSpaceOnUse" x="116" y="58" width="28" height="44">
<path fill-rule="evenodd" clip-rule="evenodd" d="M132.055 67.2129C134.617 69.6792 136.424 68.7182 138.124 67.7583V67.7583C139.68 66.8796 141.147 65.9997 143.019 67.7495V67.7495C140.505 70.4502 135.143 75.2406 135.377 79.6755V79.6755C135.457 81.1886 138.008 85.5891 138.757 101.712V101.712L126.628 99.8725C128.062 84.8681 126.348 80.832 126.032 78.3657V78.3657C125.738 76.0582 120.602 67.5939 116.786 62.4547V62.4547C115.254 60.3917 116.688 58.9152 117.606 58.7086V58.7086C118.503 58.5053 119.33 58.4108 120.095 58.4108V58.4108C125.7 58.4108 128.117 63.4223 132.055 67.2129" fill="white"/>
</mask>
<g mask="url(#mask3_242_6167)">
<path fill-rule="evenodd" clip-rule="evenodd" d="M132.055 67.2129C134.617 69.6792 136.424 68.7182 138.124 67.7583V67.7583C139.68 66.8796 141.147 65.9997 143.019 67.7495V67.7495C140.505 70.4502 135.143 75.2406 135.377 79.6755V79.6755C135.457 81.1886 138.008 85.5891 138.757 101.712V101.712L126.628 99.8725C128.062 84.8681 126.348 80.832 126.032 78.3657V78.3657C125.738 76.0582 120.602 67.5939 116.786 62.4547V62.4547C115.254 60.3917 116.688 58.9152 117.606 58.7086V58.7086C118.503 58.5053 119.33 58.4108 120.095 58.4108V58.4108C125.7 58.4108 128.117 63.4223 132.055 67.2129" fill="url(#paint4_linear_242_6167)"/>
</g>
<g filter="url(#filter0_d_242_6167)">
<path fill-rule="evenodd" clip-rule="evenodd" d="M179.819 113.537C179.819 113.537 197.247 118.353 198.369 142.881C198.369 142.881 199.578 162.476 191.229 188.452L136.239 173.626C136.239 173.626 140.771 141.82 144.536 135.236C144.536 135.236 124.688 118.729 124.375 109.473L124.569 78.969L140.32 80.5999L140.173 99.0316C140.173 99.0316 139.824 102.623 144.893 105.703C144.893 105.703 151.173 110.214 158.883 110.32C158.883 110.32 167.711 108.989 179.819 113.537" fill="#DAE4F1"/>
</g>
<path fill-rule="evenodd" clip-rule="evenodd" d="M121.916 97.8981L147.238 83.9215L159.041 122.377L144.463 132.552L121.916 97.8981Z" fill="url(#paint5_linear_242_6167)"/>
<path opacity="0.3" fill-rule="evenodd" clip-rule="evenodd" d="M161.072 111.164C161.072 111.164 146.38 120.189 144.463 132.551C144.463 132.551 140.316 131.154 138.559 129.39C138.559 129.39 149.665 112.153 154.612 109.837C154.612 109.837 160.481 110.657 164.209 110.167" fill="url(#paint6_linear_242_6167)"/>
<path fill-rule="evenodd" clip-rule="evenodd" d="M191.18 188.437C191.18 188.437 187.291 211.194 179.615 215.999C171.938 220.804 123.82 203.033 123.82 203.033C123.82 203.033 121.078 201.933 120.497 203.681L83.9089 254.149L66.6881 249.526L93.6363 186.463C93.6363 186.463 98.0223 172.847 107.29 170.697C107.29 170.697 114.871 167.952 125.295 170.75L191.18 188.437Z" fill="#233772"/>
<path fill-rule="evenodd" clip-rule="evenodd" d="M155.774 135.569C155.774 135.569 152.337 132.846 144.284 144.137C144.284 144.137 140.012 151.233 142.386 151.206L148.639 151.56L154.617 145.963L156.658 138.364L155.774 135.569Z" fill="#8BA9CF"/>
<path fill-rule="evenodd" clip-rule="evenodd" d="M140.48 101.695L149.02 136.282L131.386 131.276L121.916 97.5959L140.48 101.695Z" fill="#1C2A51"/>
<mask id="mask4_242_6167" style="mask-type:luminance" maskUnits="userSpaceOnUse" x="130" y="120" width="27" height="35">
<path fill-rule="evenodd" clip-rule="evenodd" d="M145.141 124.135L145.729 121.942C149.425 125.138 148.798 133.488 148.798 133.488V133.488L156.432 141.707L152.937 154.722L147.316 151.596L143.227 143.302C140.941 138.136 137.747 135.81 137.747 135.81V135.81C132.698 133.279 131.2 128.47 131.2 128.47V128.47C130.013 121.396 133.406 120.25 133.406 120.25V120.25C138.357 120.404 145.141 124.135 145.141 124.135" fill="white"/>
</mask>
<g mask="url(#mask4_242_6167)">
<path fill-rule="evenodd" clip-rule="evenodd" d="M145.141 124.135L145.729 121.942C149.425 125.138 148.798 133.488 148.798 133.488V133.488L156.432 141.707L152.937 154.722L147.316 151.596L143.227 143.302C140.941 138.136 137.747 135.81 137.747 135.81V135.81C132.698 133.279 131.2 128.47 131.2 128.47V128.47C130.013 121.396 133.406 120.25 133.406 120.25V120.25C138.357 120.404 145.141 124.135 145.141 124.135" fill="url(#paint7_linear_242_6167)"/>
</g>
<path fill-rule="evenodd" clip-rule="evenodd" d="M178.258 71.081C178.47 71.2288 178.683 71.361 178.894 71.5187C184.638 75.8137 186.995 83.2937 185.261 90.2515C184.565 93.0522 180.984 99.088 179.889 101.357H179.635C179.635 101.357 182.856 88.744 178.564 90.386C178.564 90.386 175.656 93.3578 175.003 96.3573C175.003 96.3573 172.995 96.0885 173.681 92.4179C173.681 92.4179 174.062 84.6901 166.89 83.327C159.714 81.9628 157.874 82.5193 154.809 79.2209L153.639 89.0739C153.639 89.0739 147.755 84.438 149.835 78.2089L149.808 78.2066C148.568 75.0827 148.257 73.5173 148.257 73.5173L150.586 72.8052L148.507 68.4303L153.35 67.5116L151.345 62.8911C170.48 63.2488 178.243 71.0521 178.243 71.0521C178.249 71.061 178.252 71.071 178.258 71.081Z" fill="url(#paint8_linear_242_6167)"/>
<path fill-rule="evenodd" clip-rule="evenodd" d="M168.908 83.5953C174.899 85.0695 174.467 94.8181 174.467 94.8181V94.8181L175.5 93.3494C177.919 86.3971 181.067 89.7511 181.067 89.7511V89.7511C182.392 91.3986 180.719 96.8067 180.719 96.8067V96.8067L178.663 108.068C178.759 109.236 179.137 112.477 180.425 113.78V113.78L178.397 115.437C176.793 116.748 174.862 117.587 172.81 117.861V117.861C169.23 118.341 164.751 119.102 163.403 119.036V119.036C163.145 119.023 162.776 118.119 162.432 117.065V117.065C161.866 115.325 161.776 113.475 162.064 111.67V111.67C162.125 111.29 162.165 110.896 162.165 110.519V110.519C161.867 110.524 161.688 110.519 161.688 110.519V110.519C156.557 112.119 153.802 99.6907 153.802 99.6907V99.6907C152.208 91.0242 154.809 79.2215 154.809 79.2215V79.2215C159.683 82.8565 168.908 83.5953 168.908 83.5953" fill="url(#paint9_linear_242_6167)"/>
<path fill-rule="evenodd" clip-rule="evenodd" d="M163.627 102.3C163.627 102.3 162.084 102.456 160.465 102.491C158.848 102.527 157.156 102.443 156.854 101.966C156.854 101.966 157.062 107.148 160.045 106.095C160.045 106.095 162.035 105.546 163.627 102.3" fill="#590909"/>
<path fill-rule="evenodd" clip-rule="evenodd" d="M163.627 102.301C163.627 102.301 156.918 102.592 157.76 105.301C157.76 105.301 158.405 106.66 160.045 106.096C160.045 106.096 161.945 105.647 163.627 102.301" fill="#EF3A32"/>
<path fill-rule="evenodd" clip-rule="evenodd" d="M161.337 83.7578C161.337 83.7578 163.319 83.7849 165.38 84.2882C166.675 84.6045 167.887 85.4612 169.016 85.5165C169.016 85.5165 164.711 86.513 161.337 83.7578Z" fill="url(#paint10_linear_242_6167)"/>
<path fill-rule="evenodd" clip-rule="evenodd" d="M151.398 84.8734C152.972 84.5601 156.402 82.9381 156.402 82.9381V82.9381C154.01 85.6255 151.398 84.8734 151.398 84.8734" fill="url(#paint11_linear_242_6167)"/>
<mask id="mask5_242_6167" style="mask-type:luminance" maskUnits="userSpaceOnUse" x="162" y="89" width="4" height="5">
<path fill-rule="evenodd" clip-rule="evenodd" d="M163.962 89.9353C164.789 89.9753 165.422 90.7386 165.378 91.6384V91.6384C165.333 92.5394 164.628 93.2371 163.801 93.1949V93.1949C162.976 93.1549 162.341 92.3917 162.387 91.4918V91.4918C162.429 90.6164 163.096 89.9342 163.892 89.9342V89.9342C163.916 89.9342 163.939 89.9342 163.962 89.9353" fill="white"/>
</mask>
<g mask="url(#mask5_242_6167)">
<path fill-rule="evenodd" clip-rule="evenodd" d="M163.962 89.9353C164.789 89.9753 165.422 90.7386 165.378 91.6384V91.6384C165.333 92.5394 164.628 93.2371 163.801 93.1949V93.1949C162.976 93.1549 162.341 92.3917 162.387 91.4918V91.4918C162.429 90.6164 163.096 89.9342 163.892 89.9342V89.9342C163.916 89.9342 163.939 89.9342 163.962 89.9353" fill="url(#paint12_linear_242_6167)"/>
</g>
<mask id="mask6_242_6167" style="mask-type:luminance" maskUnits="userSpaceOnUse" x="153" y="89" width="3" height="4">
<path fill-rule="evenodd" clip-rule="evenodd" d="M154.512 89.1717C154.963 89.1928 155.293 89.9049 155.252 90.7592V90.7592C155.21 91.6147 154.81 92.289 154.36 92.2657V92.2657C153.91 92.2446 153.578 91.5347 153.62 90.6793V90.6793C153.661 89.8383 154.049 89.1706 154.49 89.1706V89.1706C154.498 89.1706 154.505 89.1717 154.512 89.1717" fill="white"/>
</mask>
<g mask="url(#mask6_242_6167)">
<path fill-rule="evenodd" clip-rule="evenodd" d="M154.512 89.1717C154.963 89.1928 155.293 89.9049 155.252 90.7592V90.7592C155.21 91.6147 154.81 92.289 154.36 92.2657V92.2657C153.91 92.2446 153.578 91.5347 153.62 90.6793V90.6793C153.661 89.8383 154.049 89.1706 154.49 89.1706V89.1706C154.498 89.1706 154.505 89.1717 154.512 89.1717" fill="url(#paint13_linear_242_6167)"/>
</g>
<path d="M168.178 91.7771L176.118 90.644" stroke="white" stroke-width="0.263311"/>
<path fill-rule="evenodd" clip-rule="evenodd" d="M164.466 86.5493C166.654 86.6571 168.315 88.9979 168.178 91.7786C168.041 94.5604 166.157 96.7267 163.971 96.619C161.785 96.5112 160.121 94.1693 160.259 91.3886C160.396 88.6079 162.28 86.4405 164.466 86.5493Z" stroke="white" stroke-width="0.263311"/>
<path fill-rule="evenodd" clip-rule="evenodd" d="M154.197 86.0431C155.695 86.1164 156.801 88.4305 156.663 91.2112C156.526 93.993 155.199 96.1872 153.7 96.1127C152.203 96.0394 151.098 93.7264 151.236 90.9446C151.373 88.1628 152.698 85.9698 154.197 86.0431Z" stroke="white" stroke-width="0.263311"/>
<path fill-rule="evenodd" clip-rule="evenodd" d="M180.405 113.846C180.405 113.846 163.567 119.569 162.215 110.625L159.507 112.609L157.954 120.816L168.074 119.628L178.336 121.393L180.545 116.168L180.405 113.846Z" fill="#DAE4F1"/>
<path fill-rule="evenodd" clip-rule="evenodd" d="M242.311 214.072C242.311 214.072 245.672 188.956 249.332 179.858C249.332 179.858 260.017 178.444 267.08 149.839L262.559 149.065L267.627 147.494C267.627 147.494 272.969 123.422 264.714 116.199C264.714 116.199 259.26 114.431 253.659 125.486C253.659 125.486 244.3 142.57 243.407 157.217C243.407 157.217 242.089 176.284 246.888 178.918C246.888 178.918 239.643 205.923 239.078 212.51L238.702 214.862L242.311 214.072Z" fill="#4DBC98"/>
<path fill-rule="evenodd" clip-rule="evenodd" d="M253.81 176.879C249.809 181.41 248.169 179.053 248.169 179.053C248.572 168.361 264.714 116.196 264.714 116.196C265.657 116.893 266.784 118.768 266.784 118.768L253.81 176.879Z" fill="url(#paint14_linear_242_6167)"/>
<path fill-rule="evenodd" clip-rule="evenodd" d="M241.805 213.695C241.805 213.695 239.706 177.172 241.805 161.36C241.805 161.36 252.784 165.459 254.205 124.139C254.205 124.139 254.143 114.556 253.319 113.833L249.715 113.319L253.319 111.465C253.319 111.465 251.324 94.8829 243.909 96.1194C243.909 96.1194 233.457 98.5924 231.547 130.731C231.547 130.731 232.558 156.915 238.738 160.398C238.738 160.398 236.955 205.997 239.022 213.695H241.805Z" fill="#20A592"/>
<path fill-rule="evenodd" clip-rule="evenodd" d="M234.693 136.913C234.693 136.913 240.496 99.7022 243.019 96.5095C243.019 96.5095 243.856 95.8821 244.886 96.0529C244.886 96.0529 241.489 145.817 241.247 161.152C241.247 161.152 233.238 160.657 234.693 136.913Z" fill="url(#paint15_linear_242_6167)"/>
<path fill-rule="evenodd" clip-rule="evenodd" d="M258.814 213.698L251.766 272.921H224.582L218.037 213.698H258.814Z" fill="#B1CBD1"/>
<path fill-rule="evenodd" clip-rule="evenodd" d="M259.125 213L252.23 273H234.125L239.922 213.214L259.125 213Z" fill="url(#paint16_linear_242_6167)"/>
<path fill-rule="evenodd" clip-rule="evenodd" d="M236.796 213.697C236.796 213.697 232.498 182.746 231.81 180.912C231.81 180.912 240.514 175.228 235.019 142.32C235.019 142.32 229.525 115.82 219.452 116.622C219.452 116.622 209.15 118.224 214.073 149.702C214.073 149.702 218.88 177.289 229.296 181.066C229.296 181.066 232.844 205.349 232.844 213.697H236.796Z" fill="#3EC8B3"/>
<path fill-rule="evenodd" clip-rule="evenodd" d="M227.839 171.602C227.839 171.602 231.95 183.937 232.666 189.658H230.516L228.353 174.674C228.353 174.674 223.067 169.668 221.416 157.116C221.416 157.116 217.513 121.633 219.336 116.832C219.336 116.832 228.911 155.87 227.839 171.602Z" fill="url(#paint17_linear_242_6167)"/>
<g style="mix-blend-mode:multiply" opacity="0.1">
<path fill-rule="evenodd" clip-rule="evenodd" d="M180.718 96.804C180.718 96.804 174.856 107.782 162.215 110.623C162.215 110.623 162.357 113.046 164.873 114.538C164.873 114.538 174.863 110.35 180.718 96.804" fill="url(#paint18_linear_242_6167)"/>
</g>
<path fill-rule="evenodd" clip-rule="evenodd" d="M172.31 139.331C172.31 139.331 167.463 146.961 161.64 142.332L155.774 135.568C155.774 135.568 153.117 145.777 142.501 151.058C142.501 151.058 145.918 158.451 158.766 164.913C158.766 164.913 168.787 170.649 184.518 151.559L172.31 139.331Z" fill="url(#paint19_linear_242_6167)"/>
<path fill-rule="evenodd" clip-rule="evenodd" d="M103.833 268.398L129.799 259.172L130.177 260.028L106.401 270.047C106.401 270.047 104.886 270.845 103.833 268.398" fill="#C4B8BA"/>
<path fill-rule="evenodd" clip-rule="evenodd" d="M199.533 213.207C199.533 213.207 189.972 215.789 189.972 227.62C189.972 239.45 189.972 274.763 189.972 274.763H184.384V227.62C184.384 227.62 183.936 220.761 187.555 216.484C191.174 212.206 199.533 213.207 199.533 213.207Z" fill="url(#paint20_linear_242_6167)"/>
<path style="mix-blend-mode:multiply" opacity="0.1" fill-rule="evenodd" clip-rule="evenodd" d="M191.18 188.452C191.18 188.452 176.439 215.107 147.097 211.121C147.723 212.023 169.249 216.69 169.249 216.69C169.249 216.69 172.145 216.967 173.346 216.996C174.472 217.023 175.53 217.016 176.439 216.923C179.441 216.616 180.795 215.107 180.795 215.107C180.795 215.107 181.038 214.868 181.157 214.752C181.606 214.317 181.96 213.87 182.231 213.524C182.744 212.867 183.844 211.121 183.844 211.121C183.844 211.121 184.572 209.92 185.04 208.943C185.508 207.967 186.383 205.819 186.383 205.819C186.383 205.819 188.269 200.323 189.086 197.366C189.903 194.409 191.18 188.452 191.18 188.452Z" fill="url(#paint21_linear_242_6167)"/>
<path opacity="0.5" d="M39.6567 27.0008H99.5996C102.126 27.0008 104.549 28.0367 106.335 29.8805C108.122 31.7244 109.125 34.2251 109.125 36.8327V89.0008L98.6332 79.6841H39.6567C37.1319 79.6769 34.7125 78.6389 32.9267 76.7968C31.1409 74.9547 30.1339 72.4581 30.1255 69.8522V36.8327C30.1339 34.2269 31.1409 31.7303 32.9267 29.8882C34.7125 28.0461 37.1319 27.0081 39.6567 27.0008Z" fill="url(#paint22_linear_242_6167)"/>
<path d="M39.6567 27.0008H99.5996C102.126 27.0008 104.549 28.0367 106.335 29.8805C108.122 31.7244 109.125 34.2251 109.125 36.8327V89.0008L98.6332 79.6841H39.6567C37.1319 79.6769 34.7125 78.6389 32.9267 76.7968C31.1409 74.9547 30.1339 72.4581 30.1255 69.8522V36.8327C30.1339 34.2269 31.1409 31.7303 32.9267 29.8882C34.7125 28.0461 37.1319 27.0081 39.6567 27.0008Z" stroke="url(#paint23_linear_242_6167)" stroke-width="0.963036" stroke-miterlimit="10"/>
<path d="M46.779 33.9875H96.3803C99.2952 33.9875 101.658 36.3521 101.658 39.2689V68.2655C101.658 71.1823 99.2952 73.5468 96.3803 73.5468H46.779C43.8642 73.5468 41.5013 71.1823 41.5013 68.2655V39.2689C41.5013 36.3521 43.8642 33.9875 46.779 33.9875Z" fill="url(#paint24_linear_242_6167)"/>
<path d="M43.5169 33.9875H93.1182C96.0331 33.9875 98.396 36.3521 98.396 39.2689V68.2655C98.396 71.1823 96.0331 73.5468 93.1182 73.5468H43.5169C40.6021 73.5468 38.2392 71.1823 38.2392 68.2655V39.2689C38.2392 36.3521 40.6021 33.9875 43.5169 33.9875Z" fill="url(#paint25_linear_242_6167)"/>
<path d="M68.323 50.0732L96.8774 72.3544C96.0369 73.121 94.94 73.5447 93.8028 73.5423H42.8379C41.7007 73.5447 40.6038 73.121 39.7632 72.3544L68.323 50.0732Z" fill="url(#paint26_linear_242_6167)"/>
<path d="M68.323 57.4513L39.7632 35.1701C40.6057 34.4073 41.7018 33.9857 42.8379 33.9875H93.8028C94.9389 33.9857 96.035 34.4073 96.8774 35.1701L68.323 57.4513Z" fill="url(#paint27_linear_242_6167)"/>
<path d="M96.8774 35.1706L68.3176 57.4518L39.7632 35.1706" stroke="#CC5833" stroke-width="0.693386" stroke-miterlimit="10"/>
<path d="M36.2549 41.7859C29.7431 41.7859 24.4642 36.5034 24.4642 29.9871C24.4642 23.4708 29.7431 18.1883 36.2549 18.1883C42.7668 18.1883 48.0457 23.4708 48.0457 29.9871C48.0457 36.5034 42.7668 41.7859 36.2549 41.7859Z" fill="#D4003C"/>
<path d="M34.7044 41.7859C28.1925 41.7859 22.9136 36.5034 22.9136 29.9871C22.9136 23.4708 28.1925 18.1883 34.7044 18.1883C41.2162 18.1883 46.4951 23.4708 46.4951 29.9871C46.4951 36.5034 41.2162 41.7859 34.7044 41.7859Z" fill="#FF335B"/>
<path fill-rule="evenodd" clip-rule="evenodd" d="M38.7921 30C38.7921 32.1 39.8743 33.7333 39.8743 33.7333C39.9946 33.9667 40.0547 34.1417 39.9345 34.375C39.8142 34.55 39.6338 34.6667 39.3933 34.6667H28.5712C28.3307 34.6667 28.1503 34.55 28.0902 34.3167C27.9699 34.1417 27.9699 33.9083 28.0902 33.7333C28.0902 33.7333 29.1724 32.1 29.1724 30V27.6667C29.1724 25.1 31.3368 23 33.9823 23C36.6277 23 38.7921 25.1 38.7921 27.6667V30ZM33.9823 37C33.1405 37 32.3589 36.5333 31.9381 35.8333H36.0264C35.6056 36.5333 34.824 37 33.9823 37Z" fill="white"/>
<circle cx="37" cy="24" r="2.5" fill="white" stroke="#FF335B"/>
<path d="M34.7043 3.26646V10.4153" stroke="#FAD1DC" stroke-width="1.92607" stroke-linecap="round" stroke-linejoin="round"/>
<path d="M17.2347 10.5086L22.2878 15.5653" stroke="#FAD1DC" stroke-width="1.92607" stroke-linecap="round" stroke-linejoin="round"/>
<path d="M9.99985 27.9872H17.1438" stroke="#FAD1DC" stroke-width="1.92607" stroke-linecap="round" stroke-linejoin="round"/>
<path d="M52.1685 10.5086L47.1206 15.5653" stroke="#FAD1DC" stroke-width="1.92607" stroke-linecap="round" stroke-linejoin="round"/>
</g>
<defs>
<filter id="filter0_d_242_6167" x="113.843" y="69.3143" width="95.1195" height="130.548" filterUnits="userSpaceOnUse" color-interpolation-filters="sRGB">
<feFlood flood-opacity="0" result="BackgroundImageFix"/>
<feColorMatrix in="SourceAlpha" type="matrix" values="0 0 0 0 0 0 0 0 0 0 0 0 0 0 0 0 0 0 127 0" result="hardAlpha"/>
<feOffset dy="0.877702"/>
<feGaussianBlur stdDeviation="5.26621"/>
<feColorMatrix type="matrix" values="0 0 0 0 0 0 0 0 0 0 0 0 0 0 0 0 0 0 0.04 0"/>
<feBlend mode="normal" in2="BackgroundImageFix" result="effect1_dropShadow_242_6167"/>
<feBlend mode="normal" in="SourceGraphic" in2="effect1_dropShadow_242_6167" result="shape"/>
</filter>
<linearGradient id="paint0_linear_242_6167" x1="124.379" y1="252.185" x2="108.927" y2="252.185" gradientUnits="userSpaceOnUse">
<stop stop-color="#FF7054"/>
<stop offset="1" stop-color="#FFAF50"/>
</linearGradient>
<linearGradient id="paint1_linear_242_6167" x1="82.9291" y1="258.499" x2="66.3886" y2="258.499" gradientUnits="userSpaceOnUse">
<stop stop-color="#FF7054"/>
<stop offset="1" stop-color="#FFAF50"/>
</linearGradient>
<linearGradient id="paint2_linear_242_6167" x1="116.647" y1="225.234" x2="85.9624" y2="222.37" gradientUnits="userSpaceOnUse">
<stop stop-color="#442F2F"/>
<stop offset="1" stop-color="#1C1637"/>
</linearGradient>
<linearGradient id="paint3_linear_242_6167" x1="216.732" y1="137.731" x2="197.14" y2="163.433" gradientUnits="userSpaceOnUse">
<stop stop-color="#384A72"/>
<stop offset="0.252718" stop-color="#384A72"/>
<stop offset="1" stop-color="#23345B"/>
</linearGradient>
<linearGradient id="paint4_linear_242_6167" x1="121.266" y1="37.3087" x2="160.256" y2="50.2608" gradientUnits="userSpaceOnUse">
<stop stop-color="#FF7054"/>
<stop offset="1" stop-color="#FFAF50"/>
</linearGradient>
<linearGradient id="paint5_linear_242_6167" x1="160.513" y1="119.38" x2="134.152" y2="129.336" gradientUnits="userSpaceOnUse">
<stop stop-color="#EEEEEE" stop-opacity="0.01"/>
<stop offset="1" stop-color="#5693DF"/>
</linearGradient>
<linearGradient id="paint6_linear_242_6167" x1="153.91" y1="111.335" x2="159.277" y2="122.367" gradientUnits="userSpaceOnUse">
<stop stop-color="#DAE4F1"/>
<stop offset="1" stop-color="#23345B" stop-opacity="0.01"/>
</linearGradient>
<linearGradient id="paint7_linear_242_6167" x1="154.009" y1="159.363" x2="125.386" y2="155.164" gradientUnits="userSpaceOnUse">
<stop stop-color="#FF7054"/>
<stop offset="1" stop-color="#FFAF50"/>
</linearGradient>
<linearGradient id="paint8_linear_242_6167" x1="187.663" y1="89.7199" x2="159.118" y2="101.415" gradientUnits="userSpaceOnUse">
<stop stop-color="#442F2F"/>
<stop offset="1" stop-color="#26213B"/>
</linearGradient>
<linearGradient id="paint9_linear_242_6167" x1="180.682" y1="120.082" x2="152.435" y2="119.379" gradientUnits="userSpaceOnUse">
<stop stop-color="#FF7054"/>
<stop offset="1" stop-color="#FFAF50"/>
</linearGradient>
<linearGradient id="paint10_linear_242_6167" x1="168.286" y1="85.9444" x2="163.268" y2="82.0483" gradientUnits="userSpaceOnUse">
<stop stop-color="#442F2F"/>
<stop offset="1" stop-color="#26213B"/>
</linearGradient>
<linearGradient id="paint11_linear_242_6167" x1="156.05" y1="85.0494" x2="151.488" y2="83.6861" gradientUnits="userSpaceOnUse">
<stop stop-color="#442F2F"/>
<stop offset="1" stop-color="#26213B"/>
</linearGradient>
<linearGradient id="paint12_linear_242_6167" x1="165.31" y1="93.2681" x2="162.318" y2="93.1438" gradientUnits="userSpaceOnUse">
<stop stop-color="#442F2F"/>
<stop offset="1" stop-color="#26213B"/>
</linearGradient>
<linearGradient id="paint13_linear_242_6167" x1="155.23" y1="92.2997" x2="153.598" y2="92.2772" gradientUnits="userSpaceOnUse">
<stop stop-color="#442F2F"/>
<stop offset="1" stop-color="#26213B"/>
</linearGradient>
<linearGradient id="paint14_linear_242_6167" x1="261.692" y1="156.419" x2="255.804" y2="156.308" gradientUnits="userSpaceOnUse">
<stop stop-color="#4DBC98"/>
<stop offset="0.31015" stop-color="#4DBC98"/>
<stop offset="1" stop-color="#40B08B"/>
</linearGradient>
<linearGradient id="paint15_linear_242_6167" x1="242.048" y1="144.184" x2="236.58" y2="144.15" gradientUnits="userSpaceOnUse">
<stop stop-color="#199987"/>
<stop offset="0.68985" stop-color="#20A592"/>
<stop offset="1" stop-color="#20A592"/>
</linearGradient>
<linearGradient id="paint16_linear_242_6167" x1="252.283" y1="257.368" x2="239.104" y2="257.154" gradientUnits="userSpaceOnUse">
<stop stop-color="#8AA6AC"/>
<stop offset="0.68985" stop-color="#B1CBD1"/>
<stop offset="1" stop-color="#B1CBD1"/>
</linearGradient>
<linearGradient id="paint17_linear_242_6167" x1="229.299" y1="174.924" x2="220.268" y2="174.99" gradientUnits="userSpaceOnUse">
<stop stop-color="#299887"/>
<stop offset="0.576532" stop-color="#3EC8B3"/>
<stop offset="1" stop-color="#3EC8B3"/>
</linearGradient>
<linearGradient id="paint18_linear_242_6167" x1="180.345" y1="116.038" x2="166.036" y2="119.334" gradientUnits="userSpaceOnUse">
<stop stop-color="#EDF1F4"/>
<stop offset="1" stop-color="#1E2022"/>
<stop offset="1" stop-color="#1E2022"/>
</linearGradient>
<linearGradient id="paint19_linear_242_6167" x1="146.144" y1="146.052" x2="168.331" y2="133.164" gradientUnits="userSpaceOnUse">
<stop stop-color="#C3D4EA"/>
<stop offset="1" stop-color="#DAE4F1"/>
</linearGradient>
<linearGradient id="paint20_linear_242_6167" x1="193.612" y1="259.416" x2="184.297" y2="259.398" gradientUnits="userSpaceOnUse">
<stop stop-color="#FFCF7C"/>
<stop offset="0.518334" stop-color="#FFCF7C"/>
<stop offset="1" stop-color="#EEB95E"/>
</linearGradient>
<linearGradient id="paint21_linear_242_6167" x1="134.073" y1="129.067" x2="187.77" y2="214.639" gradientUnits="userSpaceOnUse">
<stop stop-color="#6C3E3B"/>
<stop offset="0.590372" stop-color="#6C3E3B"/>
<stop offset="1" stop-color="#4E2421"/>
</linearGradient>
<linearGradient id="paint22_linear_242_6167" x1="109.125" y1="58.0036" x2="30.1255" y2="58.0036" gradientUnits="userSpaceOnUse">
<stop stop-color="#E8E0E3"/>
<stop offset="0.81" stop-color="#C5EEFF"/>
</linearGradient>
<linearGradient id="paint23_linear_242_6167" x1="103.609" y1="26.2884" x2="41.5135" y2="86.4508" gradientUnits="userSpaceOnUse">
<stop stop-color="#1697D7"/>
<stop offset="1" stop-color="#4ADECE"/>
</linearGradient>
<linearGradient id="paint24_linear_242_6167" x1="68.243" y1="39.2956" x2="78.0411" y2="81.7362" gradientUnits="userSpaceOnUse">
<stop stop-color="#F88C57"/>
<stop offset="0.83" stop-color="#D65B2B"/>
<stop offset="1" stop-color="#CE5021"/>
</linearGradient>
<linearGradient id="paint25_linear_242_6167" x1="68.4299" y1="87.4753" x2="68.2853" y2="43.3623" gradientUnits="userSpaceOnUse">
<stop stop-color="#F6DE55"/>
<stop offset="0.32" stop-color="#F6D355"/>
<stop offset="0.87" stop-color="#F5B654"/>
<stop offset="1" stop-color="#F5AE54"/>
</linearGradient>
<linearGradient id="paint26_linear_242_6167" x1="76.4936" y1="114.766" x2="66.1491" y2="61.1683" gradientUnits="userSpaceOnUse">
<stop stop-color="#F6DE55"/>
<stop offset="0.32" stop-color="#F6D355"/>
<stop offset="0.87" stop-color="#F5B654"/>
<stop offset="1" stop-color="#F5AE54"/>
</linearGradient>
<linearGradient id="paint27_linear_242_6167" x1="68.1251" y1="29.482" x2="69.5495" y2="70.5984" gradientUnits="userSpaceOnUse">
<stop stop-color="#F6DE55"/>
<stop offset="0.32" stop-color="#F6D355"/>
<stop offset="0.87" stop-color="#F5B654"/>
<stop offset="1" stop-color="#F5AE54"/>
</linearGradient>
</defs>
</svg>
